{"accessors" : [{"bufferView" : 0, "byteOffset" : 0, "componentType" : 5123, "count" : 27108, "type" : "SCALAR", "max" : [27107], "min" : [0]}, {"bufferView" : 1, "byteOffset" : 0, "componentType" : 5126, "count" : 27108, "type" : "VEC3", "max" : [43.90739822387695, 40.52634048461914, 28.40813446044922], "min" : [3.907399892807007, 0.5263409614562988, 0], "name" : "POSITION"}, {"bufferView" : 1, "byteOffset" : 12, "componentType" : 5126, "count" : 27108, "type" : "VEC3", "max" : [1.0000044107437134, 1.0000044107437134, 1.0000044107437134], "min" : [-1.0000044107437134, -1.0000044107437134, -1.0000044107437134], "name" : "NORMAL"}], "asset" : {"generator" : "Aspose.3D 21.5", "version" : "2.0"}, "buffers" : [{"uri" : "data:application/octet-stream;base64,", "byteLength" : 704816}], "bufferViews" : [{"buffer" : 0, "byteOffset" : 0, "byteLength" : 54216, "target" : 34963}, {"buffer" : 0, "byteOffset" : 54220, "byteLength" : 650592, "byteStride" : 24, "target" : 34962}], "meshes" : [{"primitives" : [{"attributes" : {"POSITION" : 1, "NORMAL" : 2}, "indices" : 0, "mode" : 4}]}], "nodes" : [{"mesh" : 0, "name" : "Sim City Buildings"}], "scene" : 0, "scenes" : [{"nodes" : [0]}]}